[Header]
FileType HTR
DataType HTRS
FileVersion 1
NumSegments 22
NumFrames 4
DataFrameRate 24
EulerRotationOrder ZYX
CalibrationUnits mm
RotationUnits Degrees
GlobalAxisofGravity Y
BoneLengthAxis Y
ScaleFactor 1.0
[SegmentNames&Hierarchy]
reference	GLOBAL
Hips	reference
Spine	Hips
Spine1	Spine
Neck	Spine1
Head	Neck
LeftShoulder	Spine1
LeftArm	LeftShoulder
LeftForeArm	LeftArm
LeftHand	LeftForeArm
RightShoulder	Spine1
RightArm	RightShoulder
RightForeArm	RightArm
RightHand	RightForeArm
LeftUpLeg	Hips
LeftLeg	LeftUpLeg
LeftFoot	LeftLeg
LeftToeBase	LeftFoot
RightUpLeg	Hips
RightLeg	RightUpLeg
RightFoot	RightLeg
RightToeBase	RightFoot
[BasePosition]
reference	0	0	0	0	0	0	1
Hips	0	0	0	0	0	0	1
Spine	0	0	0	0	-0	90	1
Spine1	0	0	0	0	0	0	1
Neck	0	0	0	-7.352430803	-7.352430803	90	1
Head	0	0	0	0	-0	90	1
LeftShoulder	0	0	0	0	0	0	1
LeftArm	0	0	0	0	0	0	1
LeftForeArm	0	0	0	0	0	0	1
LeftHand	0	0	0	0	0	0	1
RightShoulder	0	0	0	0	-0	180	1
RightArm	0	0	0	0	-0	180	1
RightForeArm	0	0	0	0	-0	180	1
RightHand	0	0	0	0	-0	180	1
LeftUpLeg	0	0	0	0	-0	-90	1
LeftLeg	0	0	0	0	-0	-90	1
LeftFoot	0	0	0	66.57150701	-66.57150701	-90	1
LeftToeBase	0	0	0	0	-90	0	1
RightUpLeg	0	0	0	0	-0	-90	1
RightLeg	0	0	0	0	-0	-90	1
RightFoot	0	0	0	66.57150701	-66.57150701	-90	1
RightToeBase	0	0	0	0	-90	0	1
[reference]
39	0	0	0	0	-0	0	1.0
40	0	0	0	0	-0	0	1.0
41	0	0	0	0	-0	0	1.0
42	0	0	0	0	-0	0	1.0
[Hips]
39	3.059844732	8.71761322	-1.592494249	-172.7205353	-105.0849991	173.7843323	1.0
40	3.240082502	8.778802872	-1.661113739	-175.3358154	-105.5303345	176.7026367	1.0
41	3.444878817	8.788689613	-1.728995442	-176.2638397	-106.1907425	178.1223907	1.0
42	3.65576005	8.792729378	-1.798782825	-175.5379333	-106.9269028	177.4963074	1.0
[Spine]
39	0	0.7478299737	0	-10.03718281	-2.747033119	-87.35453796	1.0
40	0	0.7478299737	0	-9.540126801	-3.180865288	-88.44834137	1.0
41	0	0.7478299737	0	-9.615332603	-3.165588856	-88.73322296	1.0
42	0	0.7478299737	0	-9.881986618	-3.407467127	-88.16680145	1.0
[Spine1]
39	0	2.049309969	0	7.446444988	-0.926820755	-1.132304311	1.0
40	0	2.049309969	0	6.194097996	-1.047212124	-0.8681174517	1.0
41	0	2.049309969	0	5.69072628	-1.034555554	-1.057859182	1.0
42	0	2.049309969	0	5.974499702	-1.075602293	-1.313884497	1.0
[Neck]
39	0	2.231709957	0	-4.870204926	-1.317280531	-90.39482117	1.0
40	0	2.231709957	0	-4.627753258	-1.257472634	-90.4569931	1.0
41	0	2.231709957	0	-4.798910618	-1.593829393	-90.27210236	1.0
42	0	2.231709957	0	-4.995416164	-1.899893165	-90.22195435	1.0
[Head]
39	0	1.413589954	0.1823999882	-5.069551945	-9.204842567	-86.5484848	1.0
40	0	1.413589954	0.1823999882	-5.405442715	-9.219124794	-85.3757019	1.0
41	0	1.413589954	0.1823999882	-6.136354446	-9.552862167	-84.9008255	1.0
42	0	1.413589954	0.1823999882	-6.672132015	-9.869084358	-84.36212921	1.0
[LeftShoulder]
39	0.3649300039	1.825889945	-0.04271000251	-6.203062534	-6.203893661	3.363340139	1.0
40	0.3649300039	1.825889945	-0.04271000251	-6.712598324	-6.299443245	3.550354481	1.0
41	0.3649300039	1.825889945	-0.04271000251	-8.199306488	-7.189031124	3.485286951	1.0
42	0.3649300039	1.825889945	-0.04271000251	-9.267055511	-7.832576752	4.059016705	1.0
[LeftArm]
39	1.24003005	0	0	30.81071472	13.16924191	-78.21427155	1.0
40	1.24003005	0	0	34.82661819	11.02252388	-77.12212372	1.0
41	1.24003005	0	0	39.43916321	8.952152252	-75.16230774	1.0
42	1.24003005	0	0	43.15345001	5.126889706	-73.19191742	1.0
[LeftForeArm]
39	2.847419977	0	0	-6.088643551	-27.61770439	-4.060287476	1.0
40	2.847419977	0	0	-4.071299553	-41.84814453	-1.83166182	1.0
41	2.847419977	0	0	-5.804878235	-55.89125443	2.699001074	1.0
42	2.847419977	0	0	-7.785596371	-67.95110321	6.049962044	1.0
[LeftHand]
39	2.258270025	0	0	-7.130887032	-9.095618248	0.5977886319	1.0
40	2.258270025	0	0	-4.999351501	-11.86632347	2.057880163	1.0
41	2.258270025	0	0	-4.530580044	-12.80451775	1.383779764	1.0
42	2.258270025	0	0	-3.703193188	-12.41441536	-0.03394984826	1.0
[RightShoulder]
39	-0.3646599948	1.825889945	-0.04271000251	-7.776391983	8.602172852	-181.5701294	1.0
40	-0.3646599948	1.825889945	-0.04271000251	-5.937021255	8.636161804	-181.4295349	1.0
41	-0.3646599948	1.825889945	-0.04271000251	-4.751289845	8.460617065	-182.1460266	1.0
42	-0.3646599948	1.825889945	-0.04271000251	-4.078661442	8.356369019	-183.4240417	1.0
[RightArm]
39	-1.24003005	0	0	48.93674469	1.61689043	-103.3798523	1.0
40	-1.24003005	0	0	45.24853516	-2.538711309	-107.3965454	1.0
41	-1.24003005	0	0	38.19163132	-7.335529327	-111.3609924	1.0
42	-1.24003005	0	0	32.67417145	-11.99066734	-114.5162277	1.0
[RightForeArm]
39	-2.847419977	0	0	15.04979515	14.58758354	188.3665466	1.0
40	-2.847419977	0	0	17.09677887	9.375418663	190.0796509	1.0
41	-2.847419977	0	0	18.94104576	7.228373051	192.3678284	1.0
42	-2.847419977	0	0	19.86395454	6.538060188	194.4089661	1.0
[RightHand]
39	-2.258270025	0	0	13.407547	4.621347904	166.1602478	1.0
40	-2.258270025	0	0	16.05325699	3.346977949	172.7225342	1.0
41	-2.258270025	0	0	18.11101913	1.622982144	176.792923	1.0
42	-2.258270025	0	0	19.02587509	1.000188112	178.7345276	1.0
[LeftUpLeg]
39	0.9119900465	0	0	-10.14097881	2.115036249	94.95343018	1.0
40	0.9119900465	0	0	-3.184556246	7.382250786	92.35087585	1.0
41	0.9119900465	0	0	1.976833582	11.35985374	90.41716766	1.0
42	0.9119900465	0	0	6.282218456	9.891253471	89.47598267	1.0
[LeftLeg]
39	0	-4.371409893	0	50.46369553	6.984388351	79.46237183	1.0
40	0	-4.371409893	0	41.7300148	5.931219101	83.4588623	1.0
41	0	-4.371409893	0	33.53564835	5.137261391	87.11066437	1.0
42	0	-4.371409893	0	24.54161644	4.0319767	86.70929718	1.0
[LeftFoot]
39	0	-3.918009996	0	-81.08575439	94.98094177	-43.19060516	1.0
40	0	-3.918009996	0	-134.1612701	94.88780975	-102.1323853	1.0
41	0	-3.918009996	0	-140.90065	99.20881653	-111.4872513	1.0
42	0	-3.918009996	0	-123.7672958	100.6014862	-89.61515045	1.0
[LeftToeBase]
39	0	-0.5927900076	1.367989898	0	0	0	1.0
40	0	-0.5927900076	1.367989898	0	0	0	1.0
41	0	-0.5927900076	1.367989898	0	0	0	1.0
42	0	-0.5927900076	1.367989898	0	0	0	1.0
[RightUpLeg]
39	-0.9119900465	0	0	-8.237231255	3.853148937	98.83648682	1.0
40	-0.9119900465	0	0	-6.147075176	1.698989391	97.99259186	1.0
41	-0.9119900465	0	0	-5.786441326	-0.7130461335	96.79097748	1.0
42	-0.9119900465	0	0	-5.927656174	-1.614432812	96.07197571	1.0
[RightLeg]
39	0	-4.371409893	0	18.02519608	1.229221225	87.79263306	1.0
40	0	-4.371409893	0	10.63506317	0.6852911711	87.75061035	1.0
41	0	-4.371409893	0	5.735660553	1.466496229	89.60294342	1.0
42	0	-4.371409893	0	2.325644016	0.9577450752	91.60904694	1.0
[RightFoot]
39	0	-3.918009996	0	29.58660507	61.80289841	67.16900635	1.0
40	0	-3.918009996	0	38.15882492	63.21035004	70.39677429	1.0
41	0	-3.918009996	0	41.80029297	63.58792496	70.7831955	1.0
42	0	-3.918009996	0	43.29705048	63.60831833	70.82753754	1.0
[RightToeBase]
39	0	-0.5927900076	1.367989898	0	0	0	1.0
40	0	-0.5927900076	1.367989898	0	0	0	1.0
41	0	-0.5927900076	1.367989898	0	0	0	1.0
42	0	-0.5927900076	1.367989898	0	0	0	1.0
[EndOfFile]
